<svg xmlns="http://www.w3.org/2000/svg" viewBox="0 0 24 24" width="24" height="24">
  <title>arrow.down.right.and.arrow.up.left.square.fill</title>
  <path transform="matrix(0.9270324099221438, 0, 0, 0.9270324099221438, -0.7702335687126562, 19.83813145029875)" d="M6.67 2.33L20.88 2.33C23.34 2.33 24.56 1.13 24.56-1.29L24.56-15.61C24.56-18.02 23.34-19.24 20.88-19.24L6.67-19.24C4.22-19.24 2.99-18.02 2.99-15.61L2.99-1.29C2.99 1.13 4.22 2.33 6.67 2.33ZM12.62-14.86C13.09-14.86 13.46-14.47 13.46-14.00L13.46-9.80C13.46-9.07 13.10-8.80 12.47-8.80L8.27-8.80C7.80-8.80 7.43-9.18 7.43-9.64C7.43-10.13 7.80-10.51 8.27-10.51L8.86-10.50L10.72-10.37L8.00-12.97C7.65-13.31 7.64-13.90 7.99-14.26C8.34-14.61 8.92-14.63 9.28-14.25L11.88-11.50L11.75-13.42L11.75-14.00C11.75-14.47 12.14-14.86 12.62-14.86ZM19.30-8.16C19.77-8.16 20.14-7.77 20.14-7.30C20.14-6.82 19.77-6.45 19.30-6.45L18.71-6.45L16.85-6.57L19.57-3.98C19.92-3.63 19.93-3.05 19.58-2.70C19.23-2.33 18.66-2.32 18.29-2.71L15.68-5.45L15.82-3.54L15.82-2.94C15.82-2.47 15.43-2.09 14.95-2.09C14.48-2.09 14.11-2.47 14.11-2.94L14.11-7.15C14.11-7.88 14.47-8.16 15.11-8.16Z" fill="currentColor"/>
</svg>