<svg xmlns="http://www.w3.org/2000/svg" viewBox="0 0 24 24" width="24" height="24">
  <title>cedisign.building.classical.fill</title>
  <path transform="matrix(0.7642931780862815, 0, 0, 0.7642931780862815, -0.28392297357814567, 18.466636811464397)" d="M3.93 4.04L28.21 4.04C28.72 4.04 29.16 3.61 29.16 3.09C29.16 2.58 28.72 2.16 28.21 2.16L27.60 2.16L27.60 1.30C27.60 0.83 27.33 0.55 26.85 0.55L26.10 0.55L26.10-12.93L27.13-12.93C27.77-12.93 28.15-13.39 28.15-13.88C28.15-14.23 27.95-14.53 27.52-14.78L17.51-20.55C17.04-20.82 16.55-20.96 16.07-20.96C15.59-20.96 15.08-20.82 14.64-20.55L4.63-14.78C4.18-14.53 4.00-14.23 4.00-13.88C4.00-13.39 4.37-12.93 5.02-12.93L6.05-12.93L6.05 0.55L5.31 0.55C4.83 0.55 4.55 0.83 4.55 1.30L4.55 2.16L3.93 2.16C3.41 2.16 2.99 2.58 2.99 3.09C2.99 3.61 3.41 4.04 3.93 4.04ZM16.08-1.08C15.86-1.08 15.68-1.25 15.68-1.48L15.68-2.46C12.98-2.70 11.57-4.89 11.57-7.69C11.57-10.54 13.07-12.67 15.68-12.89L15.68-13.85C15.68-14.09 15.86-14.25 16.08-14.25C16.31-14.25 16.46-14.09 16.46-13.85L16.46-12.90C17.99-12.82 19.35-12.06 19.95-10.71C20.04-10.50 20.12-10.28 20.12-10.01C20.12-9.62 19.86-9.39 19.49-9.39C19.11-9.39 18.95-9.57 18.83-9.93C18.53-10.88 17.58-11.58 16.46-11.70L16.46-3.67C17.63-3.76 18.59-4.41 18.90-5.40C19.02-5.75 19.21-5.95 19.57-5.95C19.95-5.95 20.20-5.71 20.20-5.33C20.20-5.12 20.17-4.96 20.10-4.78C19.57-3.30 18.12-2.53 16.46-2.45L16.46-1.48C16.46-1.24 16.31-1.08 16.08-1.08ZM13.00-7.69C13.00-5.73 13.83-3.96 15.68-3.69L15.68-11.66C13.88-11.40 13.00-9.66 13.00-7.69Z" fill="currentColor"/>
</svg>