<svg xmlns="http://www.w3.org/2000/svg" viewBox="0 0 24 24" width="24" height="24">
  <title>person.building.classical.fill</title>
  <path transform="matrix(0.7642931780862815, 0, 0, 0.7642931780862815, -0.28392297357814567, 18.466636811464397)" d="M3.93 4.04L28.21 4.04C28.72 4.04 29.16 3.61 29.16 3.09C29.16 2.58 28.72 2.16 28.21 2.16L27.60 2.16L27.60 1.30C27.60 0.83 27.33 0.55 26.85 0.55L26.10 0.55L26.10-12.93L27.13-12.93C27.77-12.93 28.15-13.39 28.15-13.88C28.15-14.23 27.95-14.53 27.52-14.78L17.51-20.55C17.04-20.82 16.55-20.96 16.07-20.96C15.59-20.96 15.08-20.82 14.64-20.55L4.63-14.78C4.18-14.53 4.00-14.23 4.00-13.88C4.00-13.39 4.37-12.93 5.02-12.93L6.05-12.93L6.05 0.55L5.31 0.55C4.83 0.55 4.55 0.83 4.55 1.30L4.55 2.16L3.93 2.16C3.41 2.16 2.99 2.58 2.99 3.09C2.99 3.61 3.41 4.04 3.93 4.04ZM16.34-7.93C14.63-7.95 13.23-9.40 13.23-11.33C13.23-13.14 14.63-14.65 16.34-14.65C18.05-14.65 19.44-13.14 19.44-11.33C19.44-9.40 18.05-7.92 16.34-7.93ZM10.82-1.43C10.32-1.43 10.10-1.76 10.10-2.20C10.10-3.52 12.09-6.95 16.34-6.95C20.58-6.95 22.57-3.52 22.57-2.20C22.57-1.76 22.35-1.43 21.86-1.43Z" fill="currentColor"/>
</svg>