<svg xmlns="http://www.w3.org/2000/svg" viewBox="0 0 24 24" width="24" height="24">
  <title>pr.button.horizontal.fill</title>
  <path transform="matrix(0.7237772123268307, 0, 0, 0.7237772123268307, -0.16284987277353702, 18.12807463952502)" d="M12.22 2.05L21.39 2.05C28.18 2.05 30.62-0.47 30.62-6.74L30.62-10.18C30.62-16.45 28.18-18.98 21.39-18.98L12.22-18.98C5.43-18.98 2.99-16.45 2.99-10.18L2.99-6.74C2.99-0.47 5.43 2.05 12.22 2.05ZM10.89-3.47C10.31-3.47 10.00-3.81 10.00-4.38L10.00-12.45C10.00-13.04 10.37-13.38 10.88-13.38L13.14-13.38C14.92-13.38 15.96-11.93 15.96-10.09C15.96-8.23 14.88-6.83 13.04-6.83L11.77-6.83L11.77-4.38C11.77-3.82 11.46-3.47 10.89-3.47ZM18.61-3.42C18.02-3.42 17.70-3.79 17.70-4.35L17.70-12.42C17.70-13.00 18.02-13.35 18.60-13.35L20.64-13.35C22.52-13.35 23.70-12.29 23.70-10.32C23.70-9.23 23.27-8.18 22.30-7.68L23.44-4.95C23.57-4.66 23.64-4.42 23.64-4.29C23.64-3.66 23.21-3.42 22.82-3.42C22.32-3.42 22.05-3.69 21.89-4.15L20.63-7.31L19.48-7.31L19.48-4.35C19.48-3.77 19.15-3.42 18.61-3.42ZM11.77-8.23L12.69-8.23C13.77-8.23 14.20-9.02 14.20-10.09C14.20-11.23 13.71-11.95 12.70-11.95L11.77-11.95ZM19.48-8.61L20.48-8.61C21.47-8.61 21.90-9.33 21.90-10.29C21.90-11.25 21.41-11.94 20.48-11.94L19.48-11.94Z" fill="currentColor"/>
</svg>