<svg xmlns="http://www.w3.org/2000/svg" viewBox="0 0 24 24" width="24" height="24">
  <title>arrow.counterclockwise.square</title>
  <path transform="matrix(0.9270324099221438, 0, 0, 0.9270324099221438, -0.7702335687126562, 19.83813145029875)" d="M6.67 2.33L20.88 2.33C23.34 2.33 24.56 1.13 24.56-1.29L24.56-15.61C24.56-18.02 23.34-19.24 20.88-19.24L6.67-19.24C4.22-19.24 2.99-18.02 2.99-15.61L2.99-1.29C2.99 1.13 4.22 2.33 6.67 2.33ZM6.69 0.45C5.52 0.45 4.88-0.18 4.88-1.39L4.88-15.50C4.88-16.72 5.52-17.36 6.69-17.36L20.86-17.36C22.02-17.36 22.68-16.72 22.68-15.50L22.68-1.39C22.68-0.18 22.02 0.45 20.86 0.45ZM13.78-2.64C16.68-2.64 19.01-4.98 19.01-7.91C19.01-10.79 16.64-13.05 14.00-13.05C13.90-13.05 13.79-13.05 13.68-13.04L14.50-13.85C14.65-13.99 14.72-14.18 14.72-14.39C14.72-14.80 14.40-15.13 13.98-15.13C13.79-15.13 13.58-15.02 13.46-14.91L11.19-12.63C11.05-12.50 10.98-12.30 10.98-12.11C10.98-11.91 11.05-11.71 11.19-11.58L13.46-9.30C13.59-9.18 13.79-9.08 13.98-9.08C14.40-9.08 14.72-9.41 14.72-9.82C14.72-10.03 14.65-10.22 14.50-10.36L13.35-11.48C13.49-11.48 13.64-11.48 13.78-11.48C15.80-11.48 17.40-9.88 17.40-7.88C17.40-5.86 15.80-4.25 13.78-4.25C11.78-4.25 10.17-5.87 10.17-7.88C10.17-8.31 9.81-8.67 9.36-8.67C8.93-8.67 8.57-8.31 8.57-7.88C8.57-4.98 10.89-2.64 13.78-2.64Z" fill="currentColor"/>
</svg>