<svg xmlns="http://www.w3.org/2000/svg" viewBox="0 0 24 24" width="24" height="24">
  <title>inset.filled.rectangle.and.person</title>
  <path transform="matrix(0.6093062001666072, 0, 0, 0.6093062001666072, 0.17922170653338076, 17.151731524455553)" d="M6.67 2.33L20.27 2.33C20.03 1.78 20.02 1.11 20.14 0.45L6.70 0.45C5.53 0.45 4.88-0.18 4.88-1.39L4.88-15.50C4.88-16.72 5.53-17.36 6.70-17.36L26.92-17.36C28.08-17.36 28.75-16.72 28.75-15.50L28.75-14.38C29.40-14.37 29.99-14.29 30.63-14.00L30.63-15.61C30.63-18.02 29.40-19.24 26.95-19.24L6.67-19.24C4.23-19.24 2.99-18.02 2.99-15.61L2.99-1.29C2.99 1.13 4.23 2.33 6.67 2.33ZM7.51-1.15L20.72-1.15C21.53-2.92 23.43-4.39 25.70-5.06C24.53-5.99 23.77-7.48 23.77-9.16C23.75-11.45 25.18-13.42 27.14-14.06L27.14-14.70C27.14-15.36 26.77-15.75 26.11-15.75L7.51-15.75C6.86-15.75 6.48-15.36 6.48-14.70L6.48-2.20C6.48-1.54 6.86-1.15 7.51-1.15ZM28.73-5.46C30.53-5.46 32.10-7.08 32.10-9.19C32.10-11.26 30.53-12.80 28.73-12.80C26.93-12.80 25.36-11.24 25.36-9.16C25.36-7.08 26.93-5.46 28.73-5.46ZM23.07 2.33L34.38 2.33C35.26 2.33 35.81 1.92 35.81 1.22C35.81-0.96 33.09-3.96 28.73-3.96C24.35-3.96 21.64-0.96 21.64 1.22C21.64 1.92 22.18 2.33 23.07 2.33Z" fill="currentColor"/>
</svg>