<svg xmlns="http://www.w3.org/2000/svg" viewBox="0 0 24 24" width="24" height="24">
  <title>slider.horizontal.below.rectangle</title>
  <path transform="matrix(0.829284094590217, 0, 0, 0.829284094590217, 0.25072886297376096, 18.258503401360542)" d="M6.47-4.83L21.86-4.83C24.14-4.83 25.35-5.99 25.35-8.26L25.35-16.17C25.35-18.45 24.14-19.61 21.86-19.61L6.47-19.61C4.31-19.61 2.99-18.45 2.99-16.17L2.99-8.26C2.99-5.99 4.20-4.83 6.47-4.83ZM6.45-6.60C5.41-6.60 4.88-7.14 4.88-8.17L4.88-16.27C4.88-17.30 5.41-17.84 6.45-17.84L21.88-17.84C22.92-17.84 23.46-17.30 23.46-16.27L23.46-8.17C23.46-7.14 22.92-6.60 21.88-6.60ZM3.93 2.71L14.71 2.71C15.06 3.80 16.04 4.51 17.32 4.51L19.57 4.51C20.85 4.51 21.83 3.80 22.18 2.71L24.45 2.71C24.93 2.71 25.35 2.29 25.35 1.76C25.35 1.23 24.93 0.82 24.45 0.82L22.18 0.82C21.83-0.28 20.85-1.00 19.57-1.00L17.32-1.00C16.04-1.00 15.06-0.28 14.71 0.82L3.93 0.82C3.40 0.82 2.99 1.23 2.99 1.76C2.99 2.29 3.40 2.71 3.93 2.71ZM17.32 3.09C16.52 3.09 15.97 2.55 15.97 1.76C15.97 0.97 16.52 0.42 17.32 0.42L19.57 0.42C20.36 0.42 20.91 0.97 20.91 1.76C20.91 2.55 20.36 3.09 19.57 3.09Z" fill="currentColor"/>
</svg>